<?xml version="1.0" encoding="UTF-8"?><svg xmlns="http://www.w3.org/2000/svg" xmlns:xlink="http://www.w3.org/1999/xlink" contentScriptType="text/ecmascript" baseProfile="tiny" width="52" viewBox="-13.75 -13.75 71.5 71.5" height="52"><path fill="none" d="M1.105.78h44v44h-44z"/><circle r="16.873" fill-opacity=".2" cx="22.105" cy="22.782"/><path d="M22.105 6.948c-8.746 0-15.835 7.088-15.835 15.834 0 8.747 7.092 15.832 15.835 15.832 8.745 0 15.834-7.085 15.834-15.832-.002-8.746-7.092-15.834-15.835-15.834z" fill-opacity=".5"/><linearGradient x1="1444.192" gradientTransform="translate(-1422.088 -3563.213)" y1="3569.077" x2="1444.192" gradientUnits="userSpaceOnUse" y2="3600.85" xlink:type="simple" xlink:actuate="onLoad" id="aa" xlink:show="other"><stop stop-color="#fff" offset="0"/><stop stop-color="#b2b2b2" offset="1"/></linearGradient><circle fill="url(#aa)" r="15.834" cx="22.105" cy="21.743"/><linearGradient x1="476.111" gradientTransform="matrix(1 0 0 -1 -454.006 -937.013)" y1="-943.922" x2="476.111" gradientUnits="userSpaceOnUse" y2="-958.756" xlink:type="simple" xlink:actuate="onLoad" id="ab" xlink:show="other"><stop stop-color="#fff" offset="0"/><stop stop-color="#e5e5e5" offset="1"/></linearGradient><path fill="url(#ab)" d="M7.27 21.743c0-8.193 6.643-14.834 14.835-14.834 8.19 0 14.834 6.64 14.834 14.833H7.27z"/><linearGradient x1="1444.194" gradientTransform="matrix(1 0 0 -1 -1422.066 -3234.09)" y1="-3264.831" x2="1444.194" gradientUnits="userSpaceOnUse" y2="-3227.537" xlink:type="simple" xlink:actuate="onLoad" id="ac" xlink:show="other"><stop stop-color="#fff" offset="0"/><stop stop-color="#3e3e3e" offset="1"/></linearGradient><path fill="url(#ac)" d="M16.257 23.154c0 3.342 1.793 5.586 4.464 5.586.967 0 2.223-.316 3.29-1.617.727 1.02 1.867 1.617 3.2 1.617 3.752 0 6.083-2.91 6.083-7.596 0-6.94-3.973-11.084-10.633-11.084-5.822 0-11.697 3.604-11.697 11.658 0 3.753 1.09 6.7 3.234 8.76 2.663 2.554 6.083 3.09 8.485 3.09 1.98 0 4.062-.38 5.702-1.032a.86.86 0 0 0 .542-.8v-2.06a.86.86 0 0 0-.86-.857c-.104 0-.202.02-.302.058-1.662.613-3.28.924-4.818.924-5.244 0-7.688-2.604-7.688-8.192 0-4.792 2.865-7.768 7.48-7.768 1.58 0 2.895.378 3.913 1.108h-2.977c-3.422-.006-7.415 2.145-7.416 8.204zm11.595-7.002c.896 1.24 1.356 2.955 1.356 5.108 0 3.047-1.015 3.86-1.61 3.86-.408 0-.578 0-.578-1.737 0-1.317.28-3.748.832-7.23zm-4.195 5.434c-.358 2.926-1.107 4.393-2.25 4.393-1.377 0-1.722-1.17-1.722-3.054 0-2.688 1.146-5.22 3.565-5.22h.854l-.447 3.88z" fill-opacity=".5"/><linearGradient x1="1202.15" gradientTransform="translate(-1180.018 -2347.025)" y1="2357.918" x2="1202.15" gradientUnits="userSpaceOnUse" y2="2379.707" xlink:type="simple" xlink:actuate="onLoad" id="ad" xlink:show="other"><stop stop-color="#ff149e" offset="0"/><stop stop-color="#c11b6b" offset="1"/></linearGradient><path fill="url(#ad)" d="M23.67 15.804h3.367c-.582 3.658-.875 6.182-.875 7.574 0 1.324 0 2.6 1.438 2.6.69 0 2.47-.565 2.47-4.72 0-5.553-2.895-8.284-7.333-8.284-4.782 0-8.335 3.06-8.335 8.626 0 5.63 2.48 9.052 8.55 9.052 1.643 0 3.347-.324 5.117-.98v2.063c-3.216 1.283-9.393 1.848-13.272-1.88-1.977-1.895-2.97-4.607-2.97-8.14 0-7.238 5.05-10.797 10.836-10.797 6.28 0 9.77 3.772 9.77 10.223 0 3.542-1.512 6.738-5.224 6.738-1.313 0-2.673-.752-3.076-2.582-.8 1.724-1.938 2.582-3.41 2.582-2.482 0-3.606-2.297-3.606-4.73 0-5.483 3.47-7.344 6.553-7.344zm-.013 5.782l.446-3.88h-.853c-2.417 0-3.565 2.534-3.565 5.22 0 1.887.344 3.053 1.722 3.053 1.142 0 1.892-1.464 2.25-4.394z"/><linearGradient x1="1202.137" gradientTransform="translate(-1180.018 -2347.025)" y1="2362.805" x2="1202.137" gradientUnits="userSpaceOnUse" y2="2368.834" xlink:type="simple" xlink:actuate="onLoad" id="ae" xlink:show="other"><stop stop-color="#ffbfff" offset="0"/><stop stop-color="#ffbfff" offset=".198"/><stop stop-color="#de21e8" offset="1"/></linearGradient><path fill="url(#ae)" d="M17.198 21.834h2.554c.275-2.24 1.413-4.127 3.498-4.127h.854l-.443 3.88c-.015.087-.022.162-.036.247h2.62c.118-1.452.386-3.452.797-6.03h-3.37c-2.818 0-5.954 1.566-6.472 6.03z"/><linearGradient x1="1202.141" gradientTransform="translate(-1180.018 -2347.025)" y1="2357.92" x2="1202.141" gradientUnits="userSpaceOnUse" y2="2368.836" xlink:type="simple" xlink:actuate="onLoad" id="af" xlink:show="other"><stop stop-color="#ffbfff" offset="0"/><stop stop-color="#ffbfff" offset=".198"/><stop stop-color="#de21e8" offset="1"/></linearGradient><path fill="url(#af)" d="M14.402 21.834c0-.08-.006-.153-.006-.233 0-5.565 3.555-8.625 8.34-8.625 4.437 0 7.332 2.73 7.332 8.284 0 .202-.008.39-.02.575h2.358c.013-.23.02-.46.02-.692 0-6.45-3.486-10.223-9.77-10.223-5.79 0-10.837 3.56-10.837 10.798 0 .04.003.078.003.118H14.4l.002-.002z"/><g><path d="M43.05 34.79c-.34-.427-.808-.77-1.254-1.074-.38-.262-.78-.354-1.167-.566-.905-.495-1.67-1.124-2.72-1.21.018-1.186.38-3.148-.448-4.124a1.267 1.267 0 0 0-.37-.257c-.276-.125-.234-.272-.31-.564a36.957 36.957 0 0 0-1.12-3.684c-.484-1.313-1.033-2.722-1.88-3.856-.167-.227-.466-.356-.697-.513-.538-.363-.963-.814-1.45-1.24-1.008-.88-2.348-1.084-3.547-1.658-.632-.302-1.197-.606-1.86-.27-.65.328-.834 1.05-.455 1.668.353.52 1.095.91 1.593 1.293-.098 1.19 1.14 2.402 1.843 3.253-.7 1.045-.137 2.086.383 3.075-.44.35-.666.876-.83 1.4-.105.33-.185.663-.242 1.005-.065.404-.13.393-.47.6-1.163.71-1.45 1.854-1.787 3.107-.067.247-.07.64-.304.758a7.14 7.14 0 0 1-.648.294c-.582.222-1.264.405-1.775.773-.435.313-.732.893-1.21 1.132-.368.184-.756.324-1.14.47-.02.188-.054.378-.047.57h-.852c3.61 2.697 7.602 4.705 12.177 5.143 1.296.125 2.584.38 3.893.482.64.05 1.303.107 1.913-.117.62-.228 1.205-.56 1.77-.898 1.056-.635 2.098-1.32 2.885-2.282.498-.61.517-2.05.125-2.714" fill-opacity=".2"/><path d="M40.72 33.868c-.328 0-2.06-1.276-2.513-1.276-.21 0-.57-.035-.94-.073.013-.8.034-2.347.034-2.77 0-.575-.02-1.215-.286-1.482-.268-.27-.62-.165-.62-.165-1.358-5.974-3.13-8.28-3.13-8.28s-.988-.62-1.318-.948c-.328-.33-1.4-1.4-1.895-1.4-.494 0-2.348-.907-2.348-.907l-.878-.334c-.34.082-.86.304-.51.88.85.67 1.727 1.343 1.83 1.422-.037-.025-.154-.06-.154.462 0 .618 2.04 2.986 2.04 2.986s-.557.557-.557 1.092c0 .516.878 2.062.944 2.177l-.013.098c-.034.012-.07.022-.106.034-1.072.33-1.236 2.884-1.236 2.884s-.824.33-1.36.865c-.282.283-.746 1.767-1.08 3.234-.188.056-.384.125-.444.186-.123.124-2.06.74-2.35 1.03l-.967.967c-.164.164-1.09.515-1.09.515s-.03.596.425.748c0 0 4.715 3.515 10.836 3.917.39.105.755.196.974.196.536 0 2.926.41 3.79.247.866-.164 3.523-1.915 3.914-2.307.393-.392.907-.906.907-1.07V35.31c.002-.248-1.565-1.444-1.894-1.444z" fill-opacity=".4"/><linearGradient x1="98.615" gradientTransform="matrix(1 0 0 -1 -56 -102)" y1="-137.601" x2="77.769" gradientUnits="userSpaceOnUse" y2="-137.601" xlink:type="simple" xlink:actuate="onLoad" id="ag" xlink:show="other"><stop stop-color="#c25737" offset="0"/><stop stop-color="#331513" offset="1"/></linearGradient><path fill="url(#ag)" d="M40.72 33.233c-.328 0-2.06-1.276-2.513-1.276-.453 0-1.605-.165-2.018-.165-.414 0-9.19-.164-9.19-.164s-.698.164-.822.288c-.124.124-2.06.742-2.35 1.03l-.968.97c-.164.163-1.09.514-1.09.514s-.032.595.424.747c0 0 4.715 3.515 10.838 3.917.39.105.753.196.973.196.535 0 2.926.41 3.79.247.865-.164 3.52-1.915 3.913-2.307.393-.392.907-.906.907-1.07v-1.484c.002-.246-1.565-1.443-1.894-1.443z"/><linearGradient x1="90.665" gradientTransform="matrix(1 0 0 -1 -56 -102)" y1="-118.457" x2="90.665" gradientUnits="userSpaceOnUse" y2="-140.973" xlink:type="simple" xlink:actuate="onLoad" id="ah" xlink:show="other"><stop stop-color="#ffd6a6" offset="0"/><stop stop-color="#b8693b" offset="1"/></linearGradient><path fill="url(#ah)" d="M35.47 38.807c.795.093 1.724.305 2.505.032.82-.285 1.614-.877 2.333-1.354.505-.335 1.57-.937 1.667-1.604.04-.274.093-.735-.007-.998-.13-.343-.75-.688-1.055-.86-.708-.404-1.437-.772-2.147-1.177-.402-.23-.77-.258-1.222-.3-.23-.02-.458-.047-.687-.07-.355-.04-.225-.193-.22-.506.012-.834.04-1.662.085-2.495.02-.366.03-.746-.054-1.105-.11-.467-.39-.21-.74-.107-.62-2.73-1.34-5.49-2.708-7.953-.264-.477-.518-.815-.984-1.106-.51-.32-.893-.707-1.344-1.102-.518-.452-1.05-.6-1.68-.825-.652-.234-1.256-.584-1.907-.82.407.318.815.632 1.224.947l-.273.382c.447.532.785 1.13 1.236 1.686.253.312.46.653.688.983.144.21.846.9.585 1.055 2.01 3.702 3.828 9.208 4.245 17.247.145.014.3.03.46.05"/><path fill="#270f0b" d="M26.61 32.195c-.296 1.3-.485 2.58-.35 2.983.288.865 4.16 2.802 8.32 2.143 4.162-.66 3.628-2.43 3.628-2.43l-.948-2.102"/><linearGradient x1="88.215" gradientTransform="matrix(1 0 0 -1 -56 -102)" y1="-117.598" x2="88.215" gradientUnits="userSpaceOnUse" y2="-139.036" xlink:type="simple" xlink:actuate="onLoad" id="ai" xlink:show="other"><stop stop-color="#c25737" offset="0"/><stop stop-color="#331513" offset="1"/></linearGradient><path fill="url(#ai)" d="M38.21 34.47l-.95-2.1s.042-2.678.042-3.255c0-.576-.02-1.215-.287-1.483-.27-.268-.618-.165-.618-.165-1.36-5.974-3.132-8.28-3.132-8.28s-.99-.618-1.318-.947c-.33-.33-1.4-1.4-1.896-1.4-.493 0-2.347-.907-2.347-.907l-.877-.334c-.34.08-.862.303-.512.88.852.67 1.728 1.343 1.83 1.422-.035-.024-.153-.06-.153.462 0 .617 2.04 2.986 2.04 2.986s-.556.557-.556 1.09c0 .518.88 2.063.943 2.178l-.012.098c-.034.01-.07.02-.107.033-1.07.33-1.236 2.883-1.236 2.883s-.824.33-1.36.866c-.31.31-.84 2.07-1.177 3.664-.244 1.16-.386 2.23-.264 2.596.288.865 4.16 2.802 8.32 2.144 4.163-.663 3.63-2.433 3.63-2.433z"/><linearGradient x1="88.516" gradientTransform="matrix(1 0 0 -1 -56 -102)" y1="-118.456" x2="88.516" gradientUnits="userSpaceOnUse" y2="-140.391" xlink:type="simple" xlink:actuate="onLoad" id="aj" xlink:show="other"><stop stop-color="#ffd6a6" offset="0"/><stop stop-color="#b8693b" offset="1"/></linearGradient><path fill="url(#aj)" d="M37.727 34.67c0-.35-.902-2.24-1.097-2.22.013-.93.02-1.855.08-2.783.026-.375.047-.76-.01-1.133-.09-.6-.298-.412-.77-.273-.62-2.728-1.342-5.488-2.71-7.952-.263-.477-.517-.816-.982-1.107-.512-.318-.894-.706-1.345-1.1-.518-.452-1.05-.6-1.68-.825-.652-.234-1.256-.584-1.907-.82.407.318.816.63 1.224.947l-.272.382c.447.532.786 1.13 1.236 1.686.253.312.46.653.688.983.143.21.845.9.584 1.055 1.802 3.32 3.447 8.095 4.07 14.84.832-.154 2.823-.535 2.89-1.68"/><path fill-opacity=".2" d="M35 30.91l-5.77-.562-2.2-5.29-.305.83-1.672 4.525-5.544.31 4.327 3.675-1.583 5.623 5.016-3.232 4.766 2.644-1.442-5.142z"/><path fill-opacity=".4" d="M27.05 26.006l1.94 4.667 5.102.5L30.2 34.16l1.28 4.565-4.222-2.34-4.42 2.848 1.393-4.955-3.834-3.257 4.905-.273z"/><linearGradient x1="1038.879" gradientTransform="rotate(43.857 1420.165 -880.313)" y1="-733.258" x2="1065.992" gradientUnits="userSpaceOnUse" y2="-761.475" xlink:type="simple" xlink:actuate="onLoad" id="ak" xlink:show="other"><stop stop-color="#ffe23d" offset="0"/><stop stop-color="#e48717" offset="1"/></linearGradient><path fill="url(#ak)" d="M27.05 25.66l1.94 4.667 5.102.498-3.893 2.987 1.28 4.566-4.222-2.34-4.42 2.85 1.393-4.956-3.834-3.257L25.3 30.4z"/><linearGradient x1="237.787" gradientTransform="translate(-212.002 -849.003)" y1="875.967" x2="237.787" gradientUnits="userSpaceOnUse" y2="886.533" xlink:type="simple" xlink:actuate="onLoad" id="al" xlink:show="other"><stop stop-color="#fff87b" offset="0"/><stop stop-color="#ffe817" offset="1"/></linearGradient><path fill="url(#al)" d="M29.957 30.9l-1.3-.128-1.58-3.81-1.438 3.897-4.028.224 3.16 2.683-1.06 3.764c2.325-3.432 4.57-5.46 6.245-6.63z"/></g></svg>