<?xml version="1.0" encoding="UTF-8"?><svg xmlns="http://www.w3.org/2000/svg" xmlns:xlink="http://www.w3.org/1999/xlink" contentScriptType="text/ecmascript" baseProfile="tiny" width="52" viewBox="-13.75 -13.75 71.5 71.5" height="52"><path fill="none" d="M0 0h44v44H0z"/><path d="M29.19 10.893s7.407 3.32 7.12 10.743c.003 0 3.428-9.36-7.12-10.743z" fill-opacity=".2"/><path d="M30.616 8.72s8.444 3.784 8.116 12.248c0 0 3.91-10.673-8.116-12.25z" fill-opacity=".2"/><path d="M31.823 5.623s10.202 4.573 9.806 14.8c0-.002 4.722-12.896-9.807-14.8z" fill-opacity=".2"/><path d="M29.05 10.235s7.566 2.934 7.662 10.362c0 0 2.94-9.524-7.663-10.362z" fill-opacity=".5"/><path d="M30.357 7.992s8.63 3.345 8.732 11.815c.006 0 3.358-10.86-8.733-11.815z" fill-opacity=".5"/><path d="M31.404 4.837S41.83 8.88 41.96 19.11c0 0 4.052-13.12-10.556-14.273z" fill-opacity=".5"/><linearGradient x1="619.648" gradientTransform="translate(-590.008 -1684.016)" y1="1692.991" x2="628.738" gradientUnits="userSpaceOnUse" y2="1702.082" xlink:type="simple" xlink:actuate="onLoad" id="ba" xlink:show="other"><stop stop-color="#00d1ff" offset="0"/><stop stop-color="#0d409b" offset="1"/></linearGradient><path fill="url(#ba)" d="M28.863 9.773s7.775 2.33 8.455 9.727c0 0 2.182-9.727-8.455-9.727z"/><linearGradient x1="620.886" gradientTransform="translate(-590.008 -1684.016)" y1="1690.541" x2="631.251" gradientUnits="userSpaceOnUse" y2="1700.906" xlink:type="simple" xlink:actuate="onLoad" id="bb" xlink:show="other"><stop stop-color="#00d1ff" offset="0"/><stop stop-color="#0d409b" offset="1"/></linearGradient><path fill="url(#bb)" d="M29.992 7.433s8.865 2.655 9.64 11.09c0 0 2.488-11.09-9.64-11.09z"/><linearGradient x1="621.879" gradientTransform="translate(-590.008 -1684.016)" y1="1687.139" x2="634.402" gradientUnits="userSpaceOnUse" y2="1699.662" xlink:type="simple" xlink:actuate="onLoad" id="bc" xlink:show="other"><stop stop-color="#00d1ff" offset="0"/><stop stop-color="#0d409b" offset="1"/></linearGradient><path fill="url(#bc)" d="M30.787 4.206s10.71 3.208 11.646 13.4c0 0 3.005-13.4-11.646-13.4z"/><g><path d="M34.323 15.98l.154-.078c-1.014-1.154-1.996-2.133-3.56-2.478-.996-.22-2.145.097-3.103-.162l-4.45-1.2L7.38 7.748l-2.3-.622-.727 2.697 12.792 3.45h-3.46v-.482h-7.9v.553c-2.25.346-4.097 1.924-4.136 4.124V32.637c0 .758-.08 1.568.043 2.32.207 1.25 1.03 2.09 1.958 2.873l.052-.038a5.73 5.73 0 0 0 3.005.824v.002h22.89c2.64-.004 5.01-1.7 5.057-4.196V25.49v-5.867c-.002-1.166.167-2.56-.33-3.644" fill-opacity=".2"/><path d="M32.998 15.614H33c-1.633-1.883-3.854-1.036-5.905-1.59l-6.197-1.672-14.65-3.954-.52-.14-.247.918 18.61 5.02H12.764v-.48H10.5v.48H8.97v-.48H6.706v.48c-2.285 0-4.138 1.467-4.138 3.275v14.831c0 1.583-.23 3.218 1.125 4.363l.005-.004c.755.635 1.82 1.038 3.01 1.038h22.888c2.284 0 4.14-1.467 4.14-3.275V17.47c-.003-.69-.276-1.328-.738-1.856" fill-opacity=".4"/><path fill="#9fa3b1" d="M5.727 7.338l26.765 7.22-.248.92L5.48 8.254z"/><linearGradient x1="63.838" gradientTransform="matrix(1 0 0 -1 -56 -102)" y1="-114.794" x2="63.838" gradientUnits="userSpaceOnUse" y2="-115.674" xlink:type="simple" xlink:actuate="onLoad" id="bd" xlink:show="other"><stop stop-color="#606060" offset="0"/><stop offset="1"/></linearGradient><path fill="url(#bd)" d="M6.706 12.794H8.97v.88H6.706z"/><linearGradient x1="67.633" gradientTransform="matrix(1 0 0 -1 -56 -102)" y1="-114.794" x2="67.633" gradientUnits="userSpaceOnUse" y2="-115.674" xlink:type="simple" xlink:actuate="onLoad" id="be" xlink:show="other"><stop stop-color="#606060" offset="0"/><stop offset="1"/></linearGradient><path fill="url(#be)" d="M10.5 12.794h2.264v.88H10.5z"/><linearGradient x1="68.698" gradientTransform="matrix(1 0 0 -1 -56 -102)" y1="-136.27" x2="68.698" gradientUnits="userSpaceOnUse" y2="-122.923" xlink:type="simple" xlink:actuate="onLoad" id="bf" xlink:show="other"><stop offset="0"/><stop stop-color="#606060" offset="1"/></linearGradient><circle fill="url(#bf)" r="6.674" cx="12.698" cy="27.597"/><linearGradient x1="18.151" y1="13.276" x2="18.151" gradientUnits="userSpaceOnUse" y2="36.778" xlink:type="simple" xlink:actuate="onLoad" id="bg" xlink:show="other"><stop stop-color="#ccc" offset="0"/><stop stop-color="#878787" offset="1"/></linearGradient><path fill="url(#bg)" d="M29.596 13.276H6.706c-2.285 0-4.138 1.466-4.138 3.274v16.952c0 1.81 1.853 3.275 4.138 3.275h22.89c2.284 0 4.138-1.466 4.138-3.275V16.55c0-1.808-1.854-3.274-4.138-3.274z"/><linearGradient x1="64.35" gradientTransform="matrix(1 0 0 -1 -56 -102)" y1="-113.028" x2="83.954" gradientUnits="userSpaceOnUse" y2="-141.026" xlink:type="simple" xlink:actuate="onLoad" id="bh" xlink:show="other"><stop stop-color="#fff" offset="0"/><stop stop-color="#fff" offset=".499"/><stop offset=".5"/><stop offset="1"/></linearGradient><path fill="url(#bh)" d="M29.596 13.276H6.706c-2.285 0-4.138 1.466-4.138 3.274v16.952c0 1.81 1.853 3.275 4.138 3.275h22.89c2.284 0 4.138-1.466 4.138-3.275V16.55c0-1.808-1.854-3.274-4.138-3.274zm3.594 20.226c0 .713-.36 1.377-1.007 1.89-.644.51-1.562.845-2.59.845l-22.887-.003c-1.026.002-1.946-.332-2.59-.842-.646-.514-1.005-1.177-1.005-1.89V16.55c0-.713.36-1.375 1.006-1.89.644-.51 1.564-.843 2.59-.843h22.89c1.026 0 1.944.332 2.588.842.645.515 1.007 1.176 1.007 1.89v16.952z" fill-opacity=".5"/><circle fill="#383838" r="8.131" cx="12.686" cy="27.63"/><linearGradient x1="68.686" gradientTransform="matrix(1 0 0 -1 -56 -102)" y1="-122.043" x2="68.686" gradientUnits="userSpaceOnUse" y2="-137.219" xlink:type="simple" xlink:actuate="onLoad" id="bi" xlink:show="other"><stop stop-color="#e5e5e5" offset="0"/><stop stop-color="#606060" offset="1"/></linearGradient><path fill="url(#bi)" d="M12.687 20.042A7.588 7.588 0 0 0 5.1 27.63a7.587 7.587 0 0 0 7.587 7.588 7.587 7.587 0 0 0 7.588-7.588 7.59 7.59 0 0 0-7.588-7.588zm.01.88c1.14 0 2.21.29 3.15.79h-6.3a6.645 6.645 0 0 1 3.15-.79zm0 13.35a6.68 6.68 0 0 1-2.523-.498h5.048a6.688 6.688 0 0 1-2.524.497zm4.457-1.718H8.24a6.79 6.79 0 0 1-1.238-1.49h11.39a6.768 6.768 0 0 1-1.238 1.49zm1.82-2.71H6.42a6.63 6.63 0 0 1-.35-1.49h13.255a6.713 6.713 0 0 1-.35 1.49zm.372-2.71h-13.3a6.655 6.655 0 0 1 .27-1.49h12.762c.146.474.232.975.268 1.49zm-12.52-2.71c.297-.55.67-1.05 1.103-1.49h9.536c.433.44.806.94 1.103 1.49H6.825z"/><linearGradient x1="85.566" gradientTransform="matrix(1 0 0 -1 -56 -102)" y1="-123.736" x2="85.566" gradientUnits="userSpaceOnUse" y2="-126.921" xlink:type="simple" xlink:actuate="onLoad" id="bj" xlink:show="other"><stop stop-color="#606060" offset="0"/><stop offset="1"/></linearGradient><circle fill="url(#bj)" r="1.592" cx="29.566" cy="23.329"/><linearGradient x1="80.689" gradientTransform="matrix(1 0 0 -1 -56 -102)" y1="-123.737" x2="80.689" gradientUnits="userSpaceOnUse" y2="-126.92" xlink:type="simple" xlink:actuate="onLoad" id="bk" xlink:show="other"><stop stop-color="#606060" offset="0"/><stop offset="1"/></linearGradient><circle fill="url(#bk)" r="1.591" cx="24.689" cy="23.329"/><path fill="#fff" d="M7.003 31.062h3.205l1.698-1.22H6.42a6.63 6.63 0 0 1-.35-1.49h7.912l1.698-1.22H6.047a6.655 6.655 0 0 1 .27-1.49h11.437L33 14.693c-.746-.854-1.992-1.416-3.404-1.416H6.706c-2.285 0-4.138 1.466-4.138 3.274v15.167l.043 2.23c.12.69.508 1.31 1.082 1.795l4.503-3.234a6.717 6.717 0 0 1-1.192-1.446zm5.695-10.14c1.138 0 2.21.29 3.148.79H9.548a6.645 6.645 0 0 1 3.15-.79zm-4.77 2.01h9.538c.433.443.806.942 1.103 1.49H6.825a6.707 6.707 0 0 1 1.103-1.49z" fill-opacity=".3"/><linearGradient x1="61.82" gradientTransform="matrix(1 0 0 -1 -56 -102)" y1="-118.757" x2="86.685" gradientUnits="userSpaceOnUse" y2="-118.757" xlink:type="simple" xlink:actuate="onLoad" id="bl" xlink:show="other"><stop offset="0"/><stop stop-color="#606060" offset="1"/></linearGradient><path fill="url(#bl)" d="M5.82 15.232h24.865v3.05H5.82z"/><linearGradient x1="77.256" gradientTransform="matrix(1 0 0 -1 -56 -102)" y1="-120.282" x2="77.256" gradientUnits="userSpaceOnUse" y2="-118.104" xlink:type="simple" xlink:actuate="onLoad" id="bm" xlink:show="other"><stop stop-color="#fccc00" offset="0"/><stop stop-color="#e88400" offset="1"/></linearGradient><path fill="url(#bm)" d="M21.266 16.13v-.026l-.01.013-.014-.013v.025l-.45.43v1.722h.924V16.56z"/></g></svg>