<?xml version="1.0" encoding="UTF-8"?><svg xmlns="http://www.w3.org/2000/svg" xmlns:xlink="http://www.w3.org/1999/xlink" contentScriptType="text/ecmascript" baseProfile="tiny" width="52" viewBox="-13.75 -13.75 71.5 71.5" height="52"><path fill="none" d="M0 44V0h44v44"/><path d="M31.766 7.79l-.91.276.91-.285c-.326-1.042-1.25-1.59-2.252-1.864-.614-.17-1.254-.262-1.893-.335-.702-.08-1.492.047-2.172-.18-3.063-.146-6.204-.178-9.24.31-.958.155-2.06.39-2.73 1.154-.884 1.01-.788 2.662-.808 3.912-.054 3.29 0 6.583 0 9.873 0 3.284.008 6.568-.04 9.85-.025 1.532-.04 3.066.025 4.598.055 1.27-.024 3.033 1.023 3.953.847.747 2.136.9 3.21 1.04 1.232.163 2.49.264 3.734.227 2.34-.067 4.63.096 6.99-.19 1.165-.13 2.788-.297 3.626-1.22.77-.85.78-2.258.852-3.317.184-3.044-.005-6.123-.005-9.176V17.12c0-1.548-.02-3.1.008-4.646.027-1.563.12-3.17-.327-4.683" fill-opacity=".2"/><path d="M30.85 8.068c-.6-1.93-4.35-1.634-5.856-1.69-3.04-.118-6.123-.202-9.132.357-1.195.222-1.95.726-2.132 1.984-.21 1.44-.117 2.953-.11 4.402.02 3.19.004 6.383.004 9.573 0 3.277.02 6.553-.01 9.832-.014 1.394-.042 2.8.092 4.186.124 1.288.72 2.002 1.98 2.278 2.693.61 5.708.52 8.45.43 1.45-.05 2.94-.104 4.383-.354 1.34-.234 2.316-.69 2.556-2.106.316-1.96.07-4.12.07-6.09V23 15.46c-.007-2.353.394-5.122-.296-7.39" fill-opacity=".4"/><path fill="#4c4c4c" d="M30.848 7.107c-.31-.995-1.44-1.25-2.35-1.4-1.578-.26-3.172-.338-4.768-.38a52.623 52.623 0 0 0-4.46.072c-1.405.082-2.998.08-4.31.657-1.024.453-1.2 1.447-1.29 2.462-.148 1.62-.1 3.25-.068 4.878.06 3.275.018 6.555.018 9.83 0 3.132.032 6.268-.053 9.397-.036 1.316-.156 2.958.39 4.19.522 1.177 2.23 1.282 3.326 1.42 3.155.38 6.415.327 9.578.063 1.09-.09 2.577-.146 3.454-.89.896-.77.814-2.332.844-3.39.124-4.516-.024-9.064-.024-13.58 0-2.285-.026-4.572 0-6.855.023-2.108.34-4.415-.286-6.476"/><path fill="#030303" d="M29.955 6.778c-.932-.93-7.573-.93-7.573-.93s-6.648 0-7.58.93c0 0-.643-.275-.643 3.36V33.66c0 3.64.643 3.362.643 3.362.93.93 7.58.93 7.58.93s6.64 0 7.572-.93c0 0 .646.276.646-3.36v-3.146-17.23-3.147c-.002-3.637-.645-3.362-.645-3.362z"/><linearGradient x1="1258.383" gradientTransform="matrix(1 0 0 -1 -1236.007 -3949.016)" y1="-3983.018" x2="1258.383" gradientUnits="userSpaceOnUse" y2="-3958.723" xlink:type="simple" xlink:actuate="onLoad" id="ca" xlink:show="other"><stop stop-color="#585858" offset="0"/><stop stop-color="#161616" offset="1"/></linearGradient><path fill="url(#ca)" d="M15.083 9.707h14.585v24.295H15.083z"/><path fill="#fff" d="M28.47 38.086c.69-.117 1.767-.292 2.177-.938.444-.688.444-1.724.477-2.517.055-1.443.016-2.9.016-4.347v-7.937V11.03c0-1.086.383-3.962-.766-4.683-1.846-1.164-4.736-.968-6.84-1.02v33.14c1.64-.042 3.31-.1 4.937-.38" fill-opacity=".2"/><path fill="#10d600" d="M17.484 35.618a.206.206 0 0 1 0 .412h-1.846a.204.204 0 0 1-.204-.205c0-.114.09-.207.203-.207h1.844z"/><path fill="#fff" d="M23.76 35.618a.206.206 0 0 1 0 .412h-1.847a.204.204 0 0 1-.203-.205c0-.114.088-.207.203-.207h1.846z"/><path fill="red" d="M29.41 35.618c.113 0 .206.093.206.207a.207.207 0 0 1-.205.205h-1.846a.206.206 0 0 1 0-.412h1.848z"/><path fill="#c6c6c6" d="M24.092 7.584c0 .208-.17.376-.375.376h-2.325a.375.375 0 0 1 0-.75h2.323c.207 0 .377.165.377.374z"/><g><path d="M40.868 22.56c0-1.678-.873-2.884-1.903-4.093-.07.17-.14.34-.208.51-.114.284-.236.03-.345.184-.188.27-.28.687-.403.988l-.605 1.48c-.146.355-.38.268-.76.312-.154.017-.594-.563-.612-.703-.025-.19.285-.645.36-.815l1.12-2.532c-1.71-.25-3.317-.178-4.695 1.034-.17.15-.846 1.085-.953 1.04-.12-.052-.51-.29-.623-.266-.194.358-.527.73-.524 1.132.32.623.175 1.43.01 2.076-.385 1.508-1.1 3.26-2.243 4.36-.884.85-1.768 1.7-2.65 2.552-2.562 2.47-5.125 4.938-7.64 7.455-.926.928-2.41 2.048-2.557 3.418-.24 2.216 2.187 3.48 4.068 2.756.112-.048.302.016.34-.026l.41-.463c.326-.315.608-.688.91-1.027.808-.914 1.618-1.827 2.428-2.74 2.05-2.307 4.1-4.61 6.167-6.903 1.722-1.91 3.228-3.9 5.844-4.58.855-.22 1.718-.282 2.49-.762.376-.234 1.68-1.074 1.58-1.38a5.05 5.05 0 0 0 .994-3.006M18.25 42.104c.07-.244.293-.535-.015-.623-.556-.344-.3-.98.165-1.22.612-.192.72.843.388 1.19-.145.147-.205.15-.38.103-.094.133-.112.393-.157.55" fill-opacity=".2"/><path d="M39.233 19.664l-.094-.11c-.156.258-.304.088-.434.404l-.672 1.635c-.046.113-.233.792-.362.806-.33.037-.928.235-1.233.104-.51-.218-1.16-.974-.927-1.502l1.18-2.656c-1.15-.19-2.365.134-3.29.84-.204.158-1.305 1.496-1.238 1.523-.254-.106-.508-.21-.76-.32.03.06.06.117.088.175-.09 0-.178.003-.267.005.768 1.497-.23 3.59-.902 4.94-.322.647-.665 1.42-1.17 1.906-1.928 1.857-3.858 3.71-5.78 5.575-2.153 2.09-4.37 4.147-6.4 6.358-1.524 1.657-.306 4.053 1.956 3.734 1.194-.333 1.786-1.286 2.595-2.2a1314.34 1314.34 0 0 1 8.408-9.42c1.024-1.135 2-2.396 3.29-3.237.958-.558 2.166-1.265 3.324-1.265.223-.05 1.89-.434 1.89-.785 2.067-1.482 2.475-4.54.796-6.51M18.25 42.104c-1.28-.32-1.11-2.33.192-2.44 1.65 0 1.337 2.895-.192 2.44" fill-opacity=".4"/><path fill="#444" d="M39.45 20.514c-1.196 1.06-2.697 2.353-2.697 2.353l-1.725-2.303 1.29-2.906a3.815 3.815 0 1 0 3.13 2.856z"/><linearGradient x1="1633.756" gradientTransform="rotate(44.076 834.335 -1952.317)" y1="-17.755" x2="1633.756" gradientUnits="userSpaceOnUse" y2="-24.803" xlink:type="simple" xlink:actuate="onLoad" id="cb" xlink:show="other"><stop stop-color="#bcbab7" offset="0"/><stop stop-color="#69665d" offset="1"/></linearGradient><path fill="url(#cb)" d="M39.694 20.51c-1.194 1.06-2.696 2.352-2.696 2.352l-1.725-2.302 1.287-2.907a3.813 3.813 0 0 0-3.224 6.512 3.815 3.815 0 0 0 6.358-3.655z"/><path fill="#fff" d="M36.56 17.652a3.813 3.813 0 0 0-4.103 2.332c.944.15 1.903.203 2.847.513l1.257-2.845z" fill-opacity=".5"/><linearGradient x1="1633.875" gradientTransform="rotate(44.076 834.335 -1952.317)" y1="-48.62" x2="1633.875" gradientUnits="userSpaceOnUse" y2="-17.006" xlink:type="simple" xlink:actuate="onLoad" id="cc" xlink:show="other"><stop stop-color="#bcbab7" offset="0"/><stop stop-color="#69665d" offset="1"/></linearGradient><path fill="url(#cc)" d="M33.177 27.392c.053-.028.115-.067.19-.123.002 0 .002-.002.002-.002.173-.11.347-.217.51-.313 1.148-.603 2.652-.84 2.652-.84h.002a4.378 4.378 0 0 0 2.632-7.157l-1.114 2.725-1.562.178-.278-.118-4.34-1.822-.277-.118c1.105 2.157-1.91 6.72-1.91 6.72l-.03-.01a.087.087 0 0 1-.018.025c-.123.128-10.415 9.972-12.352 12.105a2.053 2.053 0 0 0 2.587 3.185l.018.014s.03-.037.09-.103c.037-.034.076-.068.11-.105a1.9 1.9 0 0 0 .214-.262C22.4 39 31.752 28.452 32.344 27.98c.217-.173.517-.382.833-.588zM17.67 41.108a1.34 1.34 0 0 1-.032-1.898 1.344 1.344 0 1 1 .03 1.898z"/><path fill="#fff" d="M38.98 24.84a4.378 4.378 0 0 0 .187-5.883l-1.114 2.724-1.562.18-.277-.12-4.34-1.82-.277-.12c.3.586.296 1.347.132 2.147l7.137 3.01c.033-.04.073-.078.114-.117z" fill-opacity=".5"/><path fill="#fff" d="M17.078 38.717c.047-.05.096-.096.147-.14.15-.165.35-.377.59-.626 2.885-2.977 11.65-11.36 11.76-11.475a.056.056 0 0 0 .01-.014l.037-.058.025.01a18.605 18.605 0 0 0 1.327-2.48c.616-1.4 1.075-3.07.542-4.094l-.11-.213.425.18h.002l4.414 1.853.258.11 1.486-.17 1.15-2.807.09.11a4.468 4.468 0 0 1-.19 5.998 4.472 4.472 0 0 1-2.435 1.29v.002l-.06.01s-.372.06-.89.19c-.514.135-1.172.343-1.732.638-.163.096-.333.202-.505.31a1.65 1.65 0 0 1-.198.126c-.312.205-.61.412-.824.583-.034.025-.122.11-.243.24-1.632 1.682-9.823 10.927-11.777 13.134a2.01 2.01 0 0 1-.222.27c-.036.042-.074.076-.11.11a6.832 6.832 0 0 0-.087.098l-.05.058-.03-.017c-.826.6-1.988.54-2.748-.193a2.147 2.147 0 0 1-.052-3.033zm.864-.645c-.242.25-.443.462-.594.628l-.004.004-.003.003a1.97 1.97 0 0 0-.094 2.91 1.97 1.97 0 0 0 2.572.144l.05-.04.006.008.04-.05.005-.004.003-.003a1.804 1.804 0 0 0 .31-.35l.003-.005.004-.004c1.948-2.2 10.15-11.453 11.787-13.145.127-.13.21-.215.264-.255.222-.177.522-.388.84-.595l.005-.002.006-.002a1.43 1.43 0 0 0 .18-.115l.004-.003c.176-.11.35-.217.52-.318 1.034-.54 2.332-.787 2.624-.837l.057-.01A4.29 4.29 0 0 0 39.2 19.12l-1.082 2.635-1.637.187-.3-.127-4.265-1.79-.153-.062c.426 1.126-.05 2.703-.63 4.04a18.86 18.86 0 0 1-1.376 2.562l-.043.06-.033-.014c-.442.434-8.915 8.543-11.738 11.46zm-.366 1.076a1.43 1.43 0 0 1 2.023-.032c.567.55.582 1.454.032 2.02a1.428 1.428 0 0 1-2.023.032l.06-.06.06-.063c.5.48 1.295.468 1.778-.026a1.257 1.257 0 0 0-1.806-1.75c-.482.494-.47 1.288.03 1.775l-.062.063-.06.06a1.427 1.427 0 0 1-.034-2.02z"/><path d="M38.902 25.035a2.82 2.82 0 0 0-.18-.07 4.27 4.27 0 0 1-2.204 1.064l-.06.008c-.29.052-1.588.3-2.62.84-.168.1-.342.206-.517.317l-.004.002a2.064 2.064 0 0 1-.182.117l-.003.002-.004.002c-.317.207-.62.418-.842.595-.05.04-.138.124-.265.255-1.64 1.69-9.84 10.945-11.787 13.146l-.004.004-.004.005a1.812 1.812 0 0 1-.31.35l-.004.003-.004.006c-.015.018-.028.033-.04.05l-.007-.01-.046.04a1.967 1.967 0 0 1-2.527-.105c-.02-.004-.04-.015-.06-.02l-.104.107c.76.735 1.922.794 2.747.194l.03.02.05-.06s.032-.032.087-.098a1.96 1.96 0 0 0 .333-.377c1.955-2.208 10.148-11.453 11.777-13.136a3.54 3.54 0 0 1 .246-.24c.21-.17.513-.38.824-.582.054-.03.12-.072.198-.127.17-.107.342-.213.505-.31.557-.294 1.22-.503 1.733-.636.516-.135.888-.192.888-.192l.06-.01a4.435 4.435 0 0 0 2.302-1.155z" fill-opacity=".6"/><path fill="#fff" d="M39.233 18.9l-.094-.108-.068.166-.27.005-1.097 2.67-1.2.136-.258-.11-.06-.025-.812-1.087 1.316-2.964-.113-.017a3.926 3.926 0 0 0-2.236.32 3.77 3.77 0 0 0-1.334.887c-.344.356-.6.766-.78 1.198l-.394-.165h-.002l-.424-.18.088.175-.27.004c1.105 2.156-1.91 6.72-1.91 6.72l-.03-.01c-.007.012-.015.02-.017.025-.125.13-10.416 9.973-12.353 12.105a2.053 2.053 0 0 0-.097 3.038c.326.317.732.495 1.15.556a2.136 2.136 0 0 0 1.904-.302l.03.018.052-.058s.03-.033.086-.1c.038-.032.075-.067.11-.107.084-.083.158-.176.223-.27 1.956-2.21 10.15-11.454 11.78-13.136.122-.13.21-.215.245-.24.214-.17.513-.38.824-.583.053-.03.12-.07.197-.127.168-.105.34-.212.505-.31.557-.294 1.22-.502 1.732-.636.517-.133.888-.19.89-.19l.058-.01c.216-.038.43-.095.64-.164.076-.025.145-.06.217-.09.133-.052.27-.103.397-.17.08-.04.16-.095.238-.142.112-.067.228-.132.334-.21.08-.06.162-.13.24-.197.075-.063.15-.115.223-.182a.046.046 0 0 0-.014-.004c.047-.046.103-.08.146-.13a4.447 4.447 0 0 0 .207-5.995zM17.73 41.05a1.26 1.26 0 0 1-.03-1.777 1.252 1.252 0 0 1 1.026-.367 1.337 1.337 0 0 1 .476 2.182 1.292 1.292 0 0 1-.434.302 1.274 1.274 0 0 1-1.037-.34z" fill-opacity=".4"/><g><path fill="#fff" d="M17.73 41.046a1.256 1.256 0 0 1-.03-1.776 1.15 1.15 0 0 1 .216-.175c.016-.012.032-.016.048-.025.066-.038.133-.072.203-.098.012-.005.024-.008.036-.014a1.188 1.188 0 0 1 .252-.056c.09-.012.18-.013.27-.002.08.03.16.07.233.115.075.048.146.107.213.17.134.13.236.28.304.44l17.963-17.962-.933.107-.258-.11-.06-.025-.813-1.087 1.314-2.964-.11-.018a3.943 3.943 0 0 0-.52-.04c-.056 0-.112.002-.166.004a4.17 4.17 0 0 0-.54.05c-.122.02-.24.047-.362.08-.05.013-.105.024-.155.04-.17.052-.335.113-.494.188a3.812 3.812 0 0 0-.69.357c-.013.01-.024.02-.038.027a3.635 3.635 0 0 0-1.06 1.074c-.13.2-.238.41-.327.625l-.396-.164h-.002l-.425-.18.09.174-.265.005c1.105 2.156-1.91 6.72-1.91 6.72l-.03-.01c-.007.012-.015.02-.018.025-.124.128-10.415 9.972-12.352 12.104a2.053 2.053 0 0 0 .177 3.26c.02.016.042.022.063.034l.756-.752a1.17 1.17 0 0 1-.185-.14z" fill-opacity=".4"/></g></g></svg>